<?xml version="1.0" encoding="UTF-8"?><svg id="Layer_1" xmlns="http://www.w3.org/2000/svg" viewBox="0 0 158.3999938965 158.6000061035"><defs><style>.cls-1{fill:#5c2983;}.cls-2{fill:#fff;}</style></defs><path class="cls-2" d="M27.3999996185,117.9000188272v39.9000015259h-6.6000003815v-17.1000061035l-4.8000001907,17.1000061035h-4.5999994278l-4.8000001907-17.1000061035v17.1000061035H0v-39.9000015259h6.4000000954l7.3000006676,27.7000045776,7.2999992371-27.6999969482s6.3999996185,0,6.3999996185-.0000076294ZM34.5999984741,148.800020353v-21.9000015259c0-5.9000015259,3.7999992371-9.8000030518,9.7999992371-9.8000030518s9.7999992371,3.9000015259,9.7999992371,9.8000030518v21.9000015259c0,5.8999938965-3.7999992371,9.8000030518-9.7999992371,9.8000030518s-9.7999992371-3.8999938965-9.7999992371-9.8000030518ZM47.0999984741,148.800020353v-21.9000015259c0-1.5999984741-1-2.6999969482-2.7000007629-2.6999969482s-2.7000007629,1.0999984741-2.7000007629,2.6999969482v21.9000015259c0,1.6000061035,1,2.6999969482,2.7000007629,2.6999969482s2.7000007629-1.1000061035,2.7000007629-2.6999969482ZM80.5999984741,117.9000188272v39.9000015259h-5.3000030518l-7.1999969482-20.3999938965v20.3999938965h-6.5999984741v-39.9000015259h5.3000030518l7.1999969482,20.4000015259v-20.4000015259h6.5999984741ZM108,157.7000142495h-7.3000030518l-.9000015259-6.1999969482h-6.1999969482l-1,6.1999969482h-7.3000030518l7.5999984741-39.9000015259h7.8000030518l7.4000015259,39.9000015259h-.0999984741ZM98.6999969482,144.300020353l-2-13.6000061035-2.0999984741,13.6000061035h4.0999984741ZM112.6999969482,117.9000188272h9.8000030518c6,0,9.8000030518,3.9000015259,9.8000030518,9.8000030518v20.2000045776c0,5.8999938965-3.8000030518,9.8000030518-9.8000030518,9.8000030518h-9.8000030518v-39.9000015259.0999908447ZM122.5,150.6000234048c1.6999969482,0,2.6999969482-1.1000061035,2.6999969482-2.6999969482v-20.1999969482c0-1.5999984741-1-2.6999969482-2.6999969482-2.6999969482h-2.6999969482v25.5h2.6999969482v.0999908447ZM138.6999969482,148.800020353v-21.9000015259c0-5.9000015259,3.8000030518-9.8000030518,9.8000030518-9.8000030518s9.8000030518,3.9000015259,9.8000030518,9.8000030518v21.9000015259c0,5.8999938965-3.8000030518,9.8000030518-9.8000030518,9.8000030518s-9.8000030518-3.8999938965-9.8000030518-9.8000030518ZM151.1999969482,148.800020353v-21.9000015259c0-1.5999984741-1-2.6999969482-2.6999969482-2.6999969482s-2.6999969482,1.0999984741-2.6999969482,2.6999969482v21.9000015259c0,1.6000061035,1,2.6999969482,2.6999969482,2.6999969482s2.6999969482-1.1000061035,2.6999969482-2.6999969482Z"/><rect class="cls-2" x="41.7999992371" y="17.3000165383" width="73.8999977112" height="58.7999992371"/><path class="cls-1" d="M124.5999984741,13.300017492L81.9000015259.4000173072c-2-.6000000238-4.0999984741-.6000000238-6,0l-42.7000007629,12.7999998033c-3,.8999996185-5,3.6999998093-5,6.8000001907v57.3000030518c0,3.0999984741,2.1000003815,5.9000015259,5.0999984741,6.8000030518l42.7000007629,12.5999984741c1.9000015259.5999984741,4,.5999984741,5.9000015259,0l42.7000045776-12.5999984741c3-.9000015259,5.1000061035-3.6999969482,5.1000061035-6.8000030518V20.1000176827c0-3.1000003815-2-5.8999996185-5-6.8000001907h-.1000137329ZM61.2000007629,70.0000173013l-12.1000022888-3.5999984741c-1.7000007629-.5-2.9000015259-2.0999984741-2.9000015259-3.7999992371v-24.7999992371l15,20.5999984741.0000038147,11.5999984741ZM78.9000015259,72.800020353h0L46.2000007629,28.2000180642l12.1000022888-3.6000003815c1.5999984741-.5,3.2999992371,0,4.2999992371,1.3999996185l16.2999992371,21.0999984741,16.2999954224-21.1000003815c1-1.2999992371,2.6999969482-1.8999996185,4.3000030518-1.3999996185l12.0999984741,3.6000003815s-32.7000045776,44.5999965668-32.6999969482,44.6000041962ZM111.5999984741,62.6000157754c0,1.8000030518-1.1999969482,3.3000030518-2.9000015259,3.8000030518l-12.0999984741,3.5999984741v-11.5999984741l15-20.5999984741s0,24.7999992371,0,24.7999954224Z"/></svg>